<svg width="48" height="60" viewBox="0 0 48 60" fill="none" xmlns="http://www.w3.org/2000/svg">
<path d="M15 48H33V42H15V48ZM21 39H27V33H33V27H27V21H21V27H15V33H21V39ZM24 60C17.65 60 12.063 57.788 7.239 53.364C2.413 48.938 0 42.95 0 35.4C0 30.4 1.988 24.963 5.964 19.089C9.938 13.213 15.95 6.85 24 0C32.05 6.85 38.063 13.213 42.039 19.089C46.013 24.963 48 30.4 48 35.4C48 42.95 45.587 48.938 40.761 53.364C35.937 57.788 30.35 60 24 60ZM24 54C29.05 54 33.312 52.275 36.786 48.825C40.262 45.375 42 40.9 42 35.4C42 31.85 40.525 27.787 37.575 23.211C34.625 18.637 30.1 13.55 24 7.95C17.9 13.55 13.375 18.637 10.425 23.211C7.475 27.787 6 31.85 6 35.4C6 40.9 7.737 45.375 11.211 48.825C14.687 52.275 18.95 54 24 54Z" fill="#1C1B1F"/>
</svg>
