<svg width="25" height="25" viewBox="0 0 25 25" fill="none" xmlns="http://www.w3.org/2000/svg">
<path d="M15.8173 18.1176L17.684 16.2509L13.4173 11.9842V5.85091H10.7507V13.0509L15.8173 18.1176ZM12.084 24.5176C10.4173 24.5176 8.85598 24.2011 7.39998 23.5682C5.94487 22.9345 4.67865 22.0785 3.60132 21.0002C2.5231 19.9229 1.66754 18.6562 1.03465 17.2002C0.400873 15.7451 0.0839844 14.1842 0.0839844 12.5176C0.0839844 10.8509 0.400873 9.28958 1.03465 7.83358C1.66754 6.37847 2.5231 5.1118 3.60132 4.03358C4.67865 2.95624 5.94487 2.10069 7.39998 1.46691C8.85598 0.834022 10.4173 0.517578 12.084 0.517578C13.7507 0.517578 15.3115 0.834022 16.7667 1.46691C18.2227 2.10069 19.4898 2.95624 20.568 4.03358C21.6453 5.1118 22.5009 6.37847 23.1347 7.83358C23.7675 9.28958 24.084 10.8509 24.084 12.5176C24.084 14.1842 23.7675 15.7451 23.1347 17.2002C22.5009 18.6562 21.6453 19.9229 20.568 21.0002C19.4898 22.0785 18.2227 22.9345 16.7667 23.5682C15.3115 24.2011 13.7507 24.5176 12.084 24.5176ZM12.084 21.8509C14.684 21.8509 16.8898 20.9451 18.7013 19.1336C20.512 17.3229 21.4173 15.1176 21.4173 12.5176C21.4173 9.91758 20.512 7.7118 18.7013 5.90025C16.8898 4.08958 14.684 3.18424 12.084 3.18424C9.48398 3.18424 7.27821 4.08958 5.46665 5.90025C3.65598 7.7118 2.75065 9.91758 2.75065 12.5176C2.75065 15.1176 3.65598 17.3229 5.46665 19.1336C7.27821 20.9451 9.48398 21.8509 12.084 21.8509Z" fill="#1C1B1F"/>
</svg>
