<svg width="66" height="48" viewBox="0 0 66 48" fill="none" xmlns="http://www.w3.org/2000/svg">
<path d="M39 27C36.5 27 34.375 26.125 32.625 24.375C30.875 22.625 30 20.5 30 18C30 15.5 30.875 13.375 32.625 11.625C34.375 9.875 36.5 9 39 9C41.5 9 43.625 9.875 45.375 11.625C47.125 13.375 48 15.5 48 18C48 20.5 47.125 22.625 45.375 24.375C43.625 26.125 41.5 27 39 27ZM18 36C16.35 36 14.938 35.412 13.764 34.236C12.588 33.062 12 31.65 12 30V6C12 4.35 12.588 2.938 13.764 1.764C14.938 0.587999 16.35 0 18 0H60C61.65 0 63.063 0.587999 64.239 1.764C65.413 2.938 66 4.35 66 6V30C66 31.65 65.413 33.062 64.239 34.236C63.063 35.412 61.65 36 60 36H18ZM24 30H54C54 28.35 54.587 26.937 55.761 25.761C56.937 24.587 58.35 24 60 24V12C58.35 12 56.937 11.412 55.761 10.236C54.587 9.062 54 7.65 54 6H24C24 7.65 23.412 9.062 22.236 10.236C21.062 11.412 19.65 12 18 12V24C19.65 24 21.062 24.587 22.236 25.761C23.412 26.937 24 28.35 24 30ZM6 48C4.35 48 2.938 47.413 1.764 46.239C0.588 45.063 0 43.65 0 42V12C0 11.15 0.288 10.437 0.864 9.861C1.438 9.287 2.15 9 3 9C3.85 9 4.563 9.287 5.139 9.861C5.713 10.437 6 11.15 6 12V42H54C54.85 42 55.562 42.288 56.136 42.864C56.712 43.438 57 44.15 57 45C57 45.85 56.712 46.562 56.136 47.136C55.562 47.712 54.85 48 54 48H6Z" fill="#1C1B1F"/>
</svg>
