<svg width="20" height="24" viewBox="0 0 20 24" fill="none" xmlns="http://www.w3.org/2000/svg">
<path d="M3.0013 23.6654C2.35964 23.6654 1.81052 23.4371 1.35397 22.9805C0.896635 22.5232 0.667969 21.9737 0.667969 21.332V7.33203L7.66797 0.332031H17.0013C17.643 0.332031 18.1925 0.560309 18.6498 1.01686C19.1064 1.4742 19.3346 2.0237 19.3346 2.66536V21.332C19.3346 21.9737 19.1064 22.5232 18.6498 22.9805C18.1925 23.4371 17.643 23.6654 17.0013 23.6654H3.0013ZM3.0013 21.332H17.0013V2.66536H8.65964L3.0013 8.3237V21.332ZM10.0013 17.832L14.668 13.1654L13.0346 11.532L11.168 13.3404V8.4987H8.83464V13.3404L6.96797 11.532L5.33464 13.1654L10.0013 17.832Z" fill="white"/>
</svg>
