<svg width="20" height="26" viewBox="0 0 20 26" fill="none" xmlns="http://www.w3.org/2000/svg">
<path d="M16.8602 14.6548C16.8602 20.0336 11.351 23.3474 10.2061 23.9786C10.1427 24.0136 10.0714 24.0319 9.999 24.0319C9.92657 24.0319 9.85532 24.0136 9.79189 23.9786C8.64615 23.3474 3.13867 20.0336 3.13867 14.6548C3.13867 10.3668 5.71146 7.36523 9.99943 7.36523C14.2874 7.36523 16.8602 10.3668 16.8602 14.6548Z" fill="black" stroke="white" stroke-width="1.4" stroke-linecap="round" stroke-linejoin="round"/>
<path d="M6.56836 14.2253C6.56836 15.1351 6.92977 16.0076 7.57309 16.6509C8.21642 17.2943 9.08895 17.6557 9.99874 17.6557C10.9085 17.6557 11.7811 17.2943 12.4244 16.6509C13.0677 16.0076 13.4291 15.1351 13.4291 14.2253C13.4291 13.3155 13.0677 12.443 12.4244 11.7997C11.7811 11.1563 10.9085 10.7949 9.99874 10.7949C9.08895 10.7949 8.21642 11.1563 7.57309 11.7997C6.92977 12.443 6.56836 13.3155 6.56836 14.2253V14.2253Z" fill="black" stroke="white" stroke-width="1.4" stroke-linecap="round" stroke-linejoin="round"/>
</svg>
