<svg width="63" height="62" viewBox="0 0 63 62" fill="none" xmlns="http://www.w3.org/2000/svg">
<path d="M45 33C40.3 28.75 36.125 24.688 32.475 20.814C28.825 16.938 27 13.3 27 9.9C27 7.1 27.95 4.75 29.85 2.85C31.75 0.95 34.1 0 36.9 0C38.5 0 40 0.337 41.4 1.011C42.8 1.687 44 2.6 45 3.75C46 2.6 47.2 1.687 48.6 1.011C50 0.337 51.5 0 53.1 0C55.9 0 58.25 0.95 60.15 2.85C62.05 4.75 63 7.1 63 9.9C63 13.3 61.175 16.938 57.525 20.814C53.875 24.688 49.7 28.75 45 33ZM45 24.9C47.95 22.1 50.688 19.312 53.214 16.536C55.738 13.762 57 11.55 57 9.9C57 8.75 56.638 7.812 55.914 7.086C55.188 6.362 54.25 6 53.1 6C52.4 6 51.738 6.137 51.114 6.411C50.488 6.687 49.95 7.1 49.5 7.65L45 13.05L40.5 7.65C40.05 7.1 39.513 6.687 38.889 6.411C38.263 6.137 37.6 6 36.9 6C35.75 6 34.813 6.362 34.089 7.086C33.363 7.812 33 8.75 33 9.9C33 11.55 34.262 13.762 36.786 16.536C39.312 19.312 42.05 22.1 45 24.9ZM39 61.5L18 55.65V60H0V27H23.85L42.45 33.9C44.1 34.5 45.438 35.55 46.464 37.05C47.488 38.55 48 40.2 48 42H54C56.5 42 58.625 42.825 60.375 44.475C62.125 46.125 63 48.3 63 51V54L39 61.5ZM6 54H12V33H6V54ZM38.85 55.2L56.7 49.65C56.55 49.1 56.212 48.687 55.686 48.411C55.162 48.137 54.6 48 54 48H39.6C38.05 48 36.65 47.9 35.4 47.7C34.15 47.5 32.8 47.15 31.35 46.65L26.175 44.85L27.9 39.15L33.9 41.1C34.8 41.4 35.85 41.625 37.05 41.775C38.25 41.925 39.9 42 42 42C42 41.45 41.838 40.925 41.514 40.425C41.188 39.925 40.8 39.6 40.35 39.45L22.8 33H18V49.5L38.85 55.2Z" fill="#1C1B1F"/>
</svg>
